<svg width="411" height="54" viewBox="0 0 411 54" fill="none" xmlns="http://www.w3.org/2000/svg">
<path d="M368.878 21.5999H381.406C403.726 21.5999 410.35 28.1519 410.35 37.7279C410.35 47.4479 403.726 53.9999 381.406 53.9999H342.742V1.43994H405.814V17.8559H368.878V21.5999ZM368.878 37.4399H378.886C382.126 37.4399 383.062 36.4319 383.062 34.8479C383.062 33.1919 382.126 32.1839 378.886 32.1839H368.878V37.4399Z" fill="black"/>
<path d="M321.913 1.43994L342.721 53.9999H315.865L313.921 48.4559H297.649L295.705 53.9999H268.849L289.585 1.43994H321.913ZM309.529 32.3279L305.785 20.5199L302.041 32.3279H309.529Z" fill="black"/>
<path d="M257.913 27.5039L273.969 53.9999H243.945L237.249 39.7439L230.553 53.9999H200.529L216.801 27.5039L200.889 1.43994H230.985L237.249 15.1199L243.441 1.43994H273.537L257.913 27.5039Z" fill="black"/>
<path d="M176.267 53.9999H148.187V1.43994H201.179V22.7519H176.267V53.9999Z" fill="black"/>
<path d="M78.0154 1.43994H114.519C137.415 1.43994 144.831 8.85594 144.831 21.7439C144.831 34.9919 137.415 42.4079 114.519 42.4079H104.583V53.9999H78.0154V1.43994ZM104.583 25.2719H113.439C116.535 25.2719 117.615 24.1919 117.615 22.3919C117.615 20.5919 116.535 19.5119 113.439 19.5119H104.583V25.2719Z" fill="black"/>
<path d="M36.9355 0C62.4953 0 73.9441 11.4478 73.9443 26.3516V29.0879C73.9443 36.6537 70.9918 43.3263 64.7432 48.0654C61.3737 39.3817 50.1304 33.0001 36.7764 33C23.5372 33 12.37 39.2714 8.89551 47.8408C2.85771 43.1166 0 36.5338 0 29.0879V26.3516C0.000226594 11.4479 11.4481 0.000137095 36.9355 0ZM36.7764 11C30.149 11 24.7764 15.0294 24.7764 20C24.7764 24.9706 30.149 29 36.7764 29C43.4036 28.9999 48.7764 24.9705 48.7764 20C48.7764 15.0295 43.4036 11.0001 36.7764 11Z" fill="black"/>
</svg>
